# xmcd
#
# Track frame offsets: 
#        150
#        21528
#        42754
#        69451
#        86556
#        111408
#        128799
#        143891
#        180611
#        204101
#        222125
#        238999
#        256602
#
# Disc length: 3654 seconds
#
# Revision: 2
# Processed by: cddbd v1.5.2PL0 Copyright (c) Steve Scherf et al.
# Submitted via: ExactAudioCopy v0.99pb4
#
DISCID=b80e440d
DTITLE=Edward Ka-Spel - Public Disturbance
DYEAR=2000
DGENRE=Experimental
TTITLE0=Illumina 2
TTITLE1=Forbidden Zone
TTITLE2=Flesh Parade
TTITLE3=I Dream Of Jeannie
TTITLE4=Suicide Pact
TTITLE5=Prisoners Of War
TTITLE6=Hotel X
TTITLE7=Atomic Roses
TTITLE8=A Crack In Melancholy Time
TTITLE9=Tanith And The Lion Tree
TTITLE10=Aazhyd China Doll
TTITLE11=The Qa Spel
TTITLE12=Extract From The Witchfinder Suite
EXTD=
EXTT0=
EXTT1=
EXTT2=
EXTT3=
EXTT4=
EXTT5=
EXTT6=
EXTT7=
EXTT8=
EXTT9=
EXTT10=
EXTT11=
EXTT12=
PLAYORDER=
